<svg xmlns="http://www.w3.org/2000/svg" viewBox="0 0 256 256" width="256" height="256" role="img" aria-label="FM">
  <rect width="256" height="256" rx="46.1" ry="46.1" fill="#1d232d"></rect>
  <g transform="translate(27.65 169.92)">
    <path d="M45.95 0L6.78 0L6.78-2.05L17.41-7.30L17.41-77.18L6.78-82.43L6.78-84.48L72.32-84.48L72.32-62.34L70.27-62.34L61.82-77.44L33.41-77.44L33.41-46.85L52.74-46.85L59.65-57.73L61.70-57.73L61.70-29.70L59.65-29.70L52.74-40.32L33.41-40.32L33.41-7.30L45.95-2.05L45.95 0Z" fill="#9bb0d0"></path>
    <path d="M110.85 0L81.02 0L81.02-2.05L91.65-7.30L94.21-77.18L83.20-82.43L83.20-84.48L111.62-84.48L138.88-21.38L166.02-84.48L193.28-84.48L193.28-82.43L182.40-78.08L184.58-7.30L193.92-2.05L193.92 0L158.98 0L158.98-2.05L168.96-7.17L167.68-68.86L137.98 0.64L131.33 0.64L101.63-68.35L99.97-7.17L110.85-2.05L110.85 0Z" fill="#e8ebef"></path>
  </g>
</svg>